<svg version="1.0" xmlns="http://www.w3.org/2000/svg"
 width="500.000000pt" height="500.000000pt" viewBox="0 0 500.000000 500.000000"
 preserveAspectRatio="xMidYMid meet">

<g transform="translate(0.000000,500.000000) scale(0.100000,-0.100000)"
fill="#000000" stroke="none">
<path d="M2317 3764 c-196 -35 -372 -129 -522 -279 -113 -114 -178 -213 -231
-354 -228 -607 186 -1275 830 -1341 530 -54 999 303 1091 829 40 229 -7 473
-131 683 -66 112 -220 266 -332 332 -212 126 -467 173 -705 130z m388 -208
c87 -23 230 -97 302 -156 123 -100 229 -266 268 -419 66 -261 -8 -546 -192
-742 -110 -117 -226 -187 -379 -231 -112 -32 -296 -32 -408 0 -153 44 -269
114 -379 231 -152 161 -229 379 -214 600 8 113 29 186 82 296 108 223 308 378
555 430 82 18 282 13 365 -9z"/>
<path d="M2320 3464 c-215 -56 -409 -237 -483 -453 -38 -110 -47 -266 -23
-381 30 -144 129 -304 244 -396 238 -191 577 -206 834 -37 138 91 253 251 293
408 19 76 20 281 1 350 -37 136 -95 233 -198 331 -100 96 -209 157 -328 184
-66 14 -276 11 -340 -6z m340 -18 c248 -60 446 -258 506 -506 18 -74 18 -251
-1 -325 -55 -218 -225 -401 -444 -479 -79 -28 -97 -30 -216 -30 -183 -1 -295
37 -432 146 -302 239 -338 697 -76 988 82 92 200 165 320 199 82 24 261 27
343 7z"/>
<path d="M2450 3310 c0 -5 25 -10 55 -10 30 0 55 5 55 10 0 6 -25 10 -55 10
-30 0 -55 -4 -55 -10z"/>
<path d="M2478 3283 c18 -2 45 -2 60 0 15 2 0 4 -33 4 -33 0 -45 -2 -27 -4z"/>
<path d="M2220 3035 l-235 -235 47 -47 47 -47 208 214 c114 117 210 218 212
224 2 6 21 30 43 53 50 52 43 81 -8 32 -19 -18 -34 -29 -34 -24 0 6 -93 -83
-207 -195 -115 -113 -221 -217 -238 -230 l-30 -25 20 25 c10 14 120 126 242
250 123 125 223 229 223 233 0 4 -12 7 -28 7 -22 0 -69 -42 -262 -235z"/>
<path d="M2570 3154 c-25 -25 -52 -49 -61 -52 -9 -4 -108 -96 -220 -205 l-203
-198 77 -77 77 -77 107 105 108 105 -105 -107 -105 -108 23 -22 22 -23 107
107 108 108 -45 45 c-24 25 -49 45 -54 45 -6 0 -58 -46 -115 -102 -75 -74 -61
-57 50 60 85 90 156 168 158 175 2 7 46 55 98 108 60 61 91 99 84 104 -7 4
-82 -60 -189 -162 -363 -346 -369 -351 -215 -188 78 83 160 168 182 190 23 21
41 44 41 50 0 6 31 42 70 80 61 60 76 85 51 85 -4 0 -27 -21 -51 -46z"/>
<path d="M2616 2991 c-73 -73 -104 -111 -96 -116 17 -11 228 201 214 215 -6 6
-45 -26 -118 -99z"/>
<path d="M2676 2931 c-60 -60 -104 -111 -99 -114 5 -3 58 43 117 102 60 60
104 111 99 114 -5 3 -58 -43 -117 -102z"/>
<path d="M2740 2895 c-52 -52 -98 -95 -101 -95 -4 0 -35 -26 -69 -57 -35 -32
-66 -57 -70 -56 -3 1 -51 -43 -106 -98 l-99 -99 52 -52 52 -52 193 200 c307
317 320 331 308 339 -7 5 -39 -19 -79 -59 -36 -36 -71 -66 -76 -66 -6 0 -62
-52 -125 -115 -63 -63 -116 -112 -119 -109 -3 2 -39 -28 -80 -68 l-75 -73 84
90 c47 50 161 171 254 268 106 112 166 181 160 187 -6 6 -45 -26 -104 -85z"/>
<path d="M2905 2840 c-22 -22 -44 -40 -50 -40 -5 0 -84 -74 -175 -165 -91 -91
-170 -165 -175 -165 -6 0 -31 -20 -55 -45 l-44 -45 21 -21 21 -21 219 223
c259 264 297 306 285 313 -5 3 -26 -13 -47 -34z"/>
<path d="M2980 2816 c-7 -9 -18 -16 -24 -16 -6 0 -110 -99 -230 -219 -121
-121 -223 -218 -227 -216 -3 3 -14 -4 -24 -15 -18 -20 -17 -20 31 -20 l49 0
235 235 c213 213 233 236 219 250 -14 14 -17 14 -29 1z"/>
<path d="M2478 2313 c18 -2 45 -2 60 0 15 2 0 4 -33 4 -33 0 -45 -2 -27 -4z"/>
<path d="M2450 2290 c0 -5 25 -10 55 -10 30 0 55 5 55 10 0 6 -25 10 -55 10
-30 0 -55 -4 -55 -10z"/>
<path d="M2159 1587 l365 -366 354 347 c342 335 429 428 324 344 -109 -86
-314 -172 -482 -203 -87 -16 -287 -16 -380 0 -153 27 -323 94 -442 176 -29 19
-64 43 -78 52 -14 9 139 -148 339 -350z"/>
</g>
</svg>
